# AST/ASF file generated using VICON BodyLanguage
# -----------------------------------------------
:version 1.10
:name VICON
:units
  mass 1.0
  length 0.45
  angle deg
:documentation
   .ast/.asf automatically generated from VICON data using
   VICON BodyBuilder and BodyLanguage model FoxedUp or BRILLIANT.MOD
:root
   order TX TY TZ RX RY RZ
   axis XYZ
   position 0 0 0  
   orientation 0 0 0 
:bonedata
  begin
     id 1 
     name lhipjoint
     direction 0.566809 -0.746272 0.349008 
     length 2.40479 
     axis 0 0 0  XYZ
  end
  begin
     id 2 
     name lfemur
     direction 0.34202 -0.939693 0  
     length 7.1578  
     axis 0 0 20  XYZ
    dof rx ry rz
    limits (-160.0 20.0)
           (-70.0 70.0)
           (-60.0 70.0)
  end
  begin
     id 3 
     name ltibia
     direction 0.34202 -0.939693 0   
     length 7.49137   
     axis 0 0 20   XYZ
    dof rx
    limits (-10.0 170.0)
  end
  begin
     id 4 
     name lfoot
     direction 0.0665746 -0.182912 0.980873   
     length 2.36784   
     axis -90 7.62852e-016 20   XYZ
    dof rx rz
    limits (-45.0 90.0)
           (-70.0 20.0)
  end
  begin
     id 5 
     name ltoes
     direction 1.53601e-011 -4.22058e-011 1   
     length 1.18966   
     axis -90 7.62852e-016 20   XYZ
    dof rx
    limits (-90.0 20.0)
  end
  begin
     id 6 
     name rhipjoint
     direction -0.550236 -0.756381 0.353735   
     length 2.37265  
     axis 0 0 0  XYZ 
  end
  begin
     id 7 
     name rfemur
     direction -0.34202 -0.939693 0   
     length 7.43386   
     axis 0 0 -20   XYZ
    dof rx ry rz
    limits (-160.0 20.0)
           (-70.0 70.0)
           (-70.0 60.0)
  end
  begin
     id 8 
     name rtibia
     direction -0.34202 -0.939693 0   
     length 7.50908   
     axis 0 0 -20   XYZ
    dof rx
    limits (-10.0 170.0)
 end
 begin
     id 9 
     name rfoot
     direction -0.0683029 -0.187661 0.979856   
     length 2.41173  
     axis -90 -7.62852e-016 -20   XYZ
    dof rx rz
    limits (-45.0 90.0)
           (-20.0 70.0)
  end
  begin
     id 10 
     name rtoes
     direction -1.53528e-011 -4.21968e-011 1   
     length 1.21082   
     axis -90 -7.62852e-016 -20   XYZ
    dof rx
    limits (-90.0 20.0)
  end
  begin
     id 11 
     name lowerback
     direction 0.013823 0.995423 -0.0945635   
     length 2.04495   
     axis 0 0 0   XYZ
    dof rx ry rz
    limits (-20.0 45.0)
           (-30.0 30.0)
           (-30.0 30.0)
  end
  begin
     id 12 
     name upperback
     direction 0.0276657 0.9994 -0.020853   
     length 2.05008   
     axis 0 0 0   XYZ
    dof rx ry rz
    limits (-20.0 45.0)
           (-30.0 30.0)
           (-30.0 30.0)
  end
  begin
     id 13 
     name thorax
     direction 0.019782 0.999531 0.0233827   
     length 2.06488   
     axis 0 0 0   XYZ
    dof rx ry rz
    limits (-20.0 45.0)
           (-30.0 30.0)
           (-30.0 30.0)
  end
  begin
     id 14 
     name lowerneck
     direction -0.0308541 0.994709 0.0979874   
     length 1.75553   
     axis 0 0 0   XYZ
    dof rx ry rz
    limits (-20.0 45.0)
           (-30.0 30.0)
           (-30.0 30.0)
  end
  begin
     id 15 
     name upperneck
     direction 0.0588398 0.995804 -0.0700903   
     length 1.76878   
     axis 0 0 0   XYZ
    dof rx ry rz
    limits (-20.0 45.0)
           (-30.0 30.0)
           (-30.0 30.0)
  end
  begin
     id 16
     name head
     direction 0.0209966 0.999159 -0.0352225  
     length 1.77193  
     axis 0 0 0   XYZ
    dof rx ry rz
    limits (-20.0 45.0)
           (-30.0 30.0)
           (-30.0 30.0)
  end
  begin
     id 17 
     name lclavicle
     direction 0.938182 0.335073 -0.0868338  
     length 3.58396  
     axis 0 0 0   XYZ
    dof ry rz
    limits (-20.0 10.0)
           (0.0 20.0)
  end
  begin
     id 18 
     name lhumerus
     direction 1 -4.48971e-011 -1.26313e-017   
     length 4.983   
     axis 180 -30 -90   XYZ
    dof rx ry rz
    limits (-60.0 90.0)
           (-90.0 90.0)
           (-90.0 90.0)
  end
  begin
     id 19
     name lradius
     direction 1 -4.48948e-011 -5.89033e-027   
     length 3.48356   
     axis 180 -30 -90   XYZ
    dof rx
    limits (-10.0 170.0)
  end
  begin
     id 20
     name lwrist
     direction 1 -4.48977e-011 -1.48983e-026   
     length 1.74178   
     axis 9.0955e-015 90 90   XYZ
    dof ry
    limits (-180.0 0.0)
 end
  begin
     id 21 
     name lhand
     direction 1 -4.49046e-011 -2.98066e-026   
     length 0.715259   
     axis 1.90115e-014 90 90   XYZ
    dof rx rz
    limits (-90.0 90.0)
           (-45.0 45.0)
  end
  begin
     id 22 
     name lfingers
     direction 1 -4.48907e-011 -5.95731e-026   
     length 0.576661   
     axis 3.80223e-014 90 90   XYZ
    dof rx
    limits (0.0 90.0)
  end
  begin
     id 23
     name lthumb
     direction 0.707107 -6.34963e-011 0.707107   
     length 0.827973   
     axis -90 45 -3.84942e-014   XYZ
    dof rx rz
    limits (-45.0 45.0)
           (-45.0 45.0)
  end
  begin
     id 24 
     name rclavicle
     direction -0.909637 0.398485 -0.11735   
     length 3.44819  
     axis 0 0 0   XYZ 
    dof ry rz
    limits (-10.0 20.0)
           (-20.0 0.0)
  end
  begin
     id 25 
     name rhumerus
     direction -1 -4.48978e-011 -1.09333e-027  
     length 5.2419   
     axis 180 30 90   XYZ
    dof rx ry rz
    limits (-90.0 60.0)
           (-90.0 90.0)
           (-90.0 90.0)
  end
  begin
     id 26 
     name rradius
     direction -1 -4.48953e-011 -7.61841e-027   
     length 3.44417   
     axis 180 30 90   XYZ
    dof rx
    limits (-10.0 170.0)
  end
  begin
     id 27 
     name rwrist
     direction -1 -4.48977e-011 -1.48983e-026   
     length 1.72209   
     axis 9.0955e-015 -90 -90   XYZ
    dof ry
    limits (-180.0 0.0)
  end
  begin
     id 28
     name rhand
     direction -1 -4.49027e-011 -2.98038e-026   
     length 0.622529   
     axis 1.90115e-014 -90 -90   XYZ
    dof rx rz
    limits (-90.0 90.0)
           (-45.0 45.0)
  end
  begin
     id 29
     name rfingers
     direction -1 -4.48838e-011 -5.95531e-026   
     length 0.501899   
     axis 3.80223e-014 -90 -90   XYZ
    dof rx
    limits (0.0 90.0)
  end
  begin
     id 30
     name rthumb
     direction -0.707107 -6.34937e-011 0.707107   
     length 0.720629   
     axis -90 -45 3.84942e-014   XYZ
    dof rx rz
    limits (-45.0 45.0)
           (-45.0 45.0)
  end
:hierarchy
  begin
    root lhipjoint rhipjoint lowerback
    lhipjoint lfemur
    lfemur ltibia
    ltibia lfoot
    lfoot ltoes
    rhipjoint rfemur
    rfemur rtibia
    rtibia rfoot
    rfoot rtoes
    lowerback upperback
    upperback thorax
    thorax lowerneck lclavicle rclavicle
    lowerneck upperneck
    upperneck head
    lclavicle lhumerus
    lhumerus lradius
    lradius lwrist
    lwrist lhand lthumb
    lhand lfingers
    rclavicle rhumerus
    rhumerus rradius
    rradius rwrist
    rwrist rhand rthumb
    rhand rfingers
  end

#!OML:ASF H:\Terrain\Patient Classification 1\PLAYGROUND\JustinFriday\JustinFriday.ASF
:FULLY-SPECIFIED
:DEGREES
51
root 5.46361 17.8616 13.3035 78.0437 -78.3912 -73.6089
lowerback 12.7979 -0.591923 2.86759
upperback 4.67003 -0.57891 2.4364
thorax -2.27113 -0.381734 1.00819
lowerneck 0.143033 -10.4754 -10.6149
upperneck 2.37957 -14.0711 6.54303
head 2.09242 -7.06721 3.59812
rclavicle -3.18055e-015 -1.43125e-014
rhumerus -29.0929 -4.10083 -78.3215
rradius 27.4367
rwrist -9.67406
rhand -12.9731 -24.6473
rfingers 7.12502
rthumb 13.1191 -54.2146
lclavicle -3.18055e-015 -1.43125e-014
lhumerus -26.6592 3.79986 80.0788
lradius 39.4655
lwrist 4.0122
lhand -17.0032 -6.27665
lfingers 7.12502
lthumb 9.2323 23.5012
rfemur -17.9901 -4.53476 37.0742
rtibia 21.5928
rfoot -5.55286 -6.46493
rtoes 17.3723
lfemur -11.122 -0.144231 -1.90752
ltibia 64.1989
lfoot 10.1302 -11.784
ltoes 10.634
52
root 5.31926 17.8742 13.3072 77.5224 -78.8739 -73.215
lowerback 12.4556 -0.527945 2.46832
upperback 4.74181 -0.560683 2.15742
thorax -2.01184 -0.368167 0.93362
lowerneck 0.248613 -10.5578 -10.2093
upperneck 2.18004 -14.1794 6.29989
head 1.95891 -7.1189 3.45118
rclavicle -2.78299e-015 -1.11319e-014
rhumerus -28.8791 -6.16444 -77.6887
rradius 28.407
rwrist -7.48809
rhand -12.7687 -24.8702
rfingers 7.12502
rthumb 13.3162 -54.4248
lclavicle -2.78299e-015 -1.11319e-014
lhumerus -26.8359 4.07695 79.8293
lradius 39.4337
lwrist 4.26837
lhand -17.4192 -6.80722
lfingers 7.12502
lthumb 8.83082 22.988
rfemur -17.1944 -4.85402 36.51
rtibia 21.4077
rfoot -5.97606 -6.17072
rtoes 17.1798
lfemur -11.8851 -0.254461 -2.41648
ltibia 65.1371
lfoot 8.9387 -11.7637
ltoes 9.69883
53
root 5.19472 17.8707 13.2877 82.7956 -78.4776 -78.2234
lowerback 11.9108 -0.186347 2.63135
upperback 4.64725 -0.101968 2.27912
thorax -1.81365 -0.136425 0.900974
lowerneck 0.231016 -10.6971 -10.3912
upperneck 2.04576 -14.363 6.43162
head 1.96175 -7.2097 3.51843
rclavicle -3.18055e-015 -1.98785e-014
rhumerus -28.4875 -6.03259 -77.4973
rradius 28.7603
rwrist -7.51394
rhand -12.4298 -24.6273
rfingers 7.12502
rthumb 13.6428 -54.1602
lclavicle -3.18055e-015 -1.98785e-014
lhumerus -27.0466 4.19666 79.7327
lradius 39.4832
lwrist 4.49624
lhand -17.9582 -6.61968
lfingers 7.12502
lthumb 8.3107 23.1968
rfemur -16.8974 -3.28172 37.1541
rtibia 21.4012
rfoot -6.18444 -6.86742
rtoes 16.5514
lfemur -13.0272 0.689401 -1.48501
ltibia 66.0757
lfoot 7.87465 -12.188
ltoes 8.63201
54
root 5.05861 17.8672 13.2867 82.1275 -77.9387 -77.7127
lowerback 11.7693 -0.306861 2.98394
upperback 4.61856 -0.224934 2.43349
thorax -1.76611 -0.196199 0.878515
lowerneck -0.01159 -10.7931 -10.6661
upperneck 2.25803 -14.4728 6.46921
head 2.11433 -7.2649 3.55083
rclavicle 6.75868e-015 -7.95139e-016
rhumerus -28.203 -5.3735 -77.3603
rradius 29.4157
rwrist -8.22063
rhand -12.5149 -24.7171
rfingers 7.12502
rthumb 13.5608 -54.2555
lclavicle 6.75868e-015 -7.95139e-016
lhumerus -27.4543 4.57589 79.6565
lradius 39.5287
lwrist 4.75718
lhand -18.5981 -6.26426
lfingers 7.12502
lthumb 7.69308 23.5758
rfemur -16.1854 -3.11171 37.656
rtibia 21.3757
rfoot -6.68596 -7.27029
rtoes 16.4353
lfemur -13.9518 0.35511 -0.701439
ltibia 66.896
lfoot 7.09404 -12.2019
ltoes 9.59282
55
root 4.93401 17.8593 13.3133 76.2149 -77.637 -72.5192
lowerback 12.4449 -0.784936 3.44057
upperback 4.65608 -0.780684 2.32863
thorax -2.10182 -0.473784 0.597096
lowerneck -0.11753 -10.8711 -10.522
upperneck 2.41474 -14.5701 6.39049
head 2.17474 -7.31244 3.48262
rclavicle 1.15295e-014 1.59028e-014
rhumerus -28.0325 -5.46854 -77.1682
rradius 29.9912
rwrist -8.24738
rhand -12.943 -24.489
rfingers 7.12502
rthumb 13.1481 -54.0545
lclavicle 1.15295e-014 1.59028e-014
lhumerus -27.8637 4.8214 79.5452
lradius 39.5157
lwrist 4.93785
lhand -19.603 -5.72176
lfingers 7.12502
lthumb 6.72308 24.1515
rfemur -14.9847 -4.19001 37.5541
rtibia 21.266
rfoot -7.28763 -7.53892
rtoes 16.3365
lfemur -14.6604 -1.20121 -0.608998
ltibia 67.6711
lfoot 6.44068 -11.9549
ltoes 10.85
56
root 4.81737 17.8543 13.292 79.1359 -77.8477 -75.3909
lowerback 12.3577 -0.517058 3.13725
upperback 4.42907 -0.448515 2.1236
thorax -2.28812 -0.305608 0.507829
lowerneck 0.115154 -10.9512 -10.4823
upperneck 2.45598 -14.7127 6.65966
head 2.18254 -7.38516 3.5707
rclavicle -6.36111e-015 1.35174e-014
rhumerus -27.9827 -6.06935 -77.0397
rradius 30.4564
rwrist -7.92155
rhand -13.7922 -23.8058
rfingers 7.12502
rthumb 12.3295 -53.4222
lclavicle -6.36111e-015 1.35174e-014
lhumerus -28.3465 4.76188 79.2474
lradius 39.5461
lwrist 4.89865
lhand -20.5561 -4.9783
lfingers 7.12502
lthumb 5.80296 24.9222
rfemur -14.5212 -3.44594 37.5509
rtibia 21.273
rfoot -7.62295 -7.73231
rtoes 15.973
lfemur -15.5804 -0.644264 -0.400656
ltibia 68.2884
lfoot 5.59335 -12.1473
ltoes 10.1319
57
root 4.68951 17.8436 13.304 77.3068 -77.2097 -73.6522
lowerback 12.2785 -0.681281 3.6801
upperback 4.30082 -0.592962 2.29612
thorax -2.3822 -0.376644 0.403139
lowerneck 0.247105 -11.0538 -10.8068
upperneck 2.54811 -14.8689 6.79245
head 2.24729 -7.46837 3.66701
rclavicle 1.19271e-015 -1.51076e-014
rhumerus -27.8306 -6.01853 -76.6448
rradius 31.1137
rwrist -8.398
rhand -13.1969 -23.7716
rfingers 7.12502
rthumb 12.9034 -53.3527
lclavicle 1.19271e-015 -1.51076e-014
lhumerus -28.7462 4.97002 79.2866
lradius 39.4875
lwrist 4.80143
lhand -21.0103 -4.26246
lfingers 7.12502
lthumb 5.3644 25.6496
rfemur -14.0007 -3.94504 38.0713
rtibia 21.3361
rfoot -8.23227 -7.78719
rtoes 16.0816
lfemur -16.6637 -1.15858 0.385402
ltibia 68.813
lfoot 4.61849 -12.1682
ltoes 9.29258
